<svg version="1.2" baseProfile="tiny-ps" xmlns="http://www.w3.org/2000/svg" viewBox="0 0 24 24" width="50" height="50">
	<title>fi-rr-sign-out-alt-svg</title>
	<style>
		tspan { white-space:pre }
		.s0 { fill: #ef6817 } 
	</style>
	<path id="Layer" class="s0" d="m11.86 15.08c0.12 0.05 0.23 0.12 0.32 0.22c0.09 0.09 0.17 0.2 0.22 0.32c0.05 0.12 0.08 0.25 0.08 0.38v3c0 0.66-0.13 1.31-0.38 1.91c-0.25 0.61-0.62 1.16-1.08 1.62c-0.46 0.46-1.02 0.83-1.62 1.08c-0.61 0.25-1.26 0.38-1.91 0.38l-2.48 0c-0.66 0-1.31-0.13-1.91-0.38c-0.61-0.25-1.16-0.62-1.62-1.08c-0.46-0.46-0.83-1.02-1.08-1.62c-0.25-0.61-0.38-1.26-0.38-1.91l0-14c0-0.66 0.13-1.31 0.38-1.91c0.25-0.61 0.62-1.16 1.08-1.62c0.46-0.46 1.02-0.83 1.62-1.08c0.61-0.25 1.26-0.38 1.91-0.38l2.48 0c0.66 0 1.31 0.13 1.91 0.38c0.61 0.25 1.16 0.62 1.62 1.08c0.46 0.46 0.83 1.02 1.08 1.62c0.25 0.61 0.38 1.26 0.38 1.91v3c0 0.27-0.11 0.52-0.29 0.71c-0.19 0.19-0.44 0.29-0.71 0.29c-0.27 0-0.52-0.11-0.71-0.29c-0.19-0.19-0.29-0.44-0.29-0.71v-3c0-0.39-0.08-0.78-0.23-1.15c-0.15-0.36-0.37-0.69-0.65-0.97c-0.28-0.28-0.61-0.5-0.97-0.65c-0.36-0.15-0.75-0.23-1.15-0.23l-2.48 0c-0.39 0-0.78 0.08-1.15 0.23c-0.36 0.15-0.69 0.37-0.97 0.65c-0.28 0.28-0.5 0.61-0.65 0.97c-0.15 0.36-0.23 0.75-0.23 1.15l0 14c0 0.39 0.08 0.78 0.23 1.15c0.15 0.36 0.37 0.69 0.65 0.97c0.28 0.28 0.61 0.5 0.97 0.65c0.36 0.15 0.75 0.23 1.15 0.23h2.48c0.39 0 0.78-0.08 1.15-0.23c0.36-0.15 0.69-0.37 0.97-0.65c0.28-0.28 0.5-0.61 0.65-0.97c0.15-0.36 0.23-0.75 0.23-1.15v-3c0-0.13 0.03-0.26 0.08-0.38c0.05-0.12 0.12-0.23 0.22-0.32c0.09-0.09 0.2-0.17 0.32-0.22c0.12-0.05 0.25-0.08 0.38-0.08c0.13 0 0.26 0.03 0.38 0.08z" />
	<path id="Layer" class="s0" d="m22.87 9.88c0.28 0.28 0.5 0.61 0.65 0.97c0.15 0.36 0.23 0.75 0.23 1.15c0 0.39-0.08 0.78-0.23 1.15c-0.15 0.36-0.37 0.69-0.65 0.97l-4.59 4.59c-0.19 0.19-0.44 0.3-0.71 0.31c-0.27 0-0.53-0.1-0.72-0.29c-0.19-0.19-0.3-0.45-0.29-0.72c0-0.27 0.11-0.52 0.31-0.71l4.32-4.32l-15.19 0.03v0c-0.27 0-0.52-0.11-0.71-0.29c-0.19-0.19-0.29-0.44-0.29-0.71c0-0.27 0.11-0.52 0.29-0.71c0.19-0.19 0.44-0.29 0.71-0.29l15.13-0.03l-4.26-4.26c-0.19-0.19-0.3-0.44-0.31-0.71c0-0.27 0.1-0.53 0.29-0.72c0.19-0.19 0.45-0.3 0.72-0.29c0.27 0 0.52 0.11 0.71 0.31l4.59 4.59l0 0z" />
</svg>