<svg version="1.2" baseProfile="tiny-ps" xmlns="http://www.w3.org/2000/svg" viewBox="0 0 24 24" width="50" height="50">
	<title>fi-rr-cross-small-svg</title>
	<style>
		tspan { white-space:pre }
		.s0 { fill: #000000 } 
	</style>
	<path id="Layer" class="s0" d="m18.22 6.32c0.05 0.12 0.08 0.25 0.08 0.38c0 0.13-0.03 0.26-0.08 0.38c-0.05 0.12-0.12 0.23-0.22 0.32l-4.59 4.59l4.59 4.59c0.09 0.09 0.17 0.2 0.22 0.32c0.05 0.12 0.08 0.25 0.08 0.38c0 0.13-0.03 0.26-0.08 0.38c-0.05 0.12-0.12 0.23-0.22 0.32v0c-0.09 0.09-0.2 0.17-0.32 0.22c-0.12 0.05-0.25 0.08-0.38 0.08c-0.13 0-0.26-0.03-0.38-0.08c-0.12-0.05-0.23-0.12-0.32-0.22l-4.59-4.59l-4.59 4.59c-0.09 0.09-0.2 0.17-0.32 0.22c-0.12 0.05-0.25 0.08-0.38 0.08c-0.13 0-0.26-0.03-0.38-0.08c-0.12-0.05-0.23-0.12-0.32-0.22v0c-0.09-0.09-0.17-0.2-0.22-0.32c-0.05-0.12-0.08-0.25-0.08-0.38c0-0.13 0.03-0.26 0.08-0.38c0.05-0.12 0.12-0.23 0.22-0.32l4.59-4.59l-4.59-4.59c-0.09-0.09-0.17-0.2-0.22-0.32c-0.05-0.12-0.08-0.25-0.08-0.38c0-0.13 0.03-0.26 0.08-0.38c0.05-0.12 0.12-0.23 0.22-0.32v0c0.09-0.09 0.2-0.17 0.32-0.22c0.12-0.05 0.25-0.08 0.38-0.08c0.13 0 0.26 0.03 0.38 0.08c0.12 0.05 0.23 0.12 0.32 0.22l4.59 4.59l4.59-4.59c0.09-0.09 0.2-0.17 0.32-0.22c0.12-0.05 0.25-0.08 0.38-0.08c0.13 0 0.26 0.03 0.38 0.08c0.12 0.05 0.23 0.12 0.32 0.22v0c0.09 0.09 0.17 0.2 0.22 0.32z" />
</svg>