<svg version="1.2" baseProfile="tiny-ps" xmlns="http://www.w3.org/2000/svg" viewBox="0 0 24 24" width="50" height="50">
	<title>fi-rr-comment-user-svg</title>
	<style>
		tspan { white-space:pre }
		.s0 { fill: #ef6817 } 
	</style>
	<path id="Layer" fill-rule="evenodd" class="s0" d="m12.01 23.66c-0.12 0-0.24-0.01-0.36-0.03c-0.12-0.02-0.24-0.05-0.35-0.1c-0.11-0.04-0.22-0.1-0.33-0.16c-0.1-0.06-0.2-0.14-0.29-0.22l-3.75-3.16h-2.92c-0.53 0-1.05-0.1-1.53-0.3c-0.49-0.2-0.93-0.5-1.3-0.87c-0.37-0.37-0.67-0.81-0.87-1.3c-0.2-0.49-0.3-1.01-0.3-1.53l0-12c0-0.53 0.1-1.05 0.3-1.53c0.2-0.49 0.5-0.93 0.87-1.3c0.37-0.37 0.81-0.67 1.3-0.87c0.49-0.2 1.01-0.3 1.53-0.3l16 0c0.53 0 1.05 0.1 1.53 0.3c0.49 0.2 0.93 0.5 1.3 0.87c0.37 0.37 0.67 0.81 0.87 1.3c0.2 0.49 0.3 1.01 0.3 1.53v12c0 0.53-0.1 1.05-0.3 1.53c-0.2 0.49-0.5 0.93-0.87 1.3c-0.37 0.37-0.81 0.67-1.3 0.87c-0.49 0.2-1.01 0.3-1.53 0.3h-2.85l-3.85 3.18c-0.09 0.08-0.18 0.15-0.28 0.21c-0.1 0.06-0.21 0.11-0.32 0.15c-0.11 0.04-0.22 0.07-0.34 0.09c-0.12 0.02-0.23 0.03-0.35 0.03zm-8.01-21.66c-0.26 0-0.52 0.05-0.77 0.15c-0.24 0.1-0.46 0.25-0.65 0.43c-0.19 0.19-0.33 0.41-0.43 0.65c-0.1 0.24-0.15 0.5-0.15 0.77l0 12c0 0.26 0.05 0.52 0.15 0.77c0.1 0.24 0.25 0.46 0.43 0.65c0.19 0.19 0.41 0.33 0.65 0.43c0.24 0.1 0.5 0.15 0.77 0.15h3.29c0.06 0 0.12 0.01 0.17 0.02c0.06 0.01 0.11 0.03 0.17 0.05c0.05 0.02 0.11 0.04 0.16 0.07c0.05 0.03 0.1 0.06 0.14 0.1l4.05 3.41l4.17-3.42c0.04-0.04 0.09-0.07 0.14-0.1c0.05-0.03 0.1-0.05 0.16-0.07c0.05-0.02 0.11-0.03 0.17-0.04c0.06-0.01 0.11-0.01 0.17-0.01h3.21c0.26 0 0.52-0.05 0.77-0.15c0.24-0.1 0.46-0.25 0.65-0.43c0.19-0.19 0.33-0.41 0.43-0.65c0.1-0.24 0.15-0.5 0.15-0.77v-12c0-0.26-0.05-0.52-0.15-0.77c-0.1-0.24-0.25-0.46-0.43-0.65c-0.19-0.19-0.41-0.33-0.65-0.43c-0.24-0.1-0.5-0.15-0.77-0.15l-16 0zm5.88 7.12c-0.56-0.56-0.88-1.33-0.88-2.12c0-0.8 0.32-1.56 0.88-2.12c0.56-0.56 1.33-0.88 2.12-0.88c0.8 0 1.56 0.32 2.12 0.88c0.56 0.56 0.88 1.33 0.88 2.12c0 0.8-0.32 1.56-0.88 2.12c-0.56 0.56-1.33 0.88-2.12 0.88c-0.8 0-1.56-0.32-2.12-0.88zm-0.91 6.13c-0.06 0.26-0.23 0.49-0.46 0.63c-0.23 0.14-0.51 0.18-0.77 0.11c-0.26-0.07-0.48-0.24-0.62-0.47c-0.13-0.23-0.17-0.51-0.1-0.77c1.31-4.95 8.63-4.95 9.94 0c0.07 0.26 0.03 0.53-0.11 0.76c-0.13 0.23-0.35 0.39-0.61 0.46c-0.26 0.07-0.53 0.03-0.76-0.11c-0.23-0.13-0.39-0.35-0.46-0.61c-0.21-0.64-0.61-1.2-1.15-1.6c-0.54-0.4-1.2-0.61-1.88-0.61c-0.67 0-1.33 0.21-1.88 0.61c-0.54 0.4-0.95 0.96-1.15 1.6z" />
</svg>